<svg width="25" height="16" viewBox="0 0 25 16" fill="none" xmlns="http://www.w3.org/2000/svg">
<path d="M20.8333 6.95801C20.625 6.95801 20.4167 6.95801 20.3125 7.06217L18.125 4.87467H20.8333V1.74967L16.9792 3.72884L13.9583 0.708008H9.375V2.79134H13.125L15.2083 4.87467H11.4583L7.29167 6.95801L5.20833 4.87467H0V6.95801H4.16667C1.875 6.95801 0 8.83301 0 11.1247C0 13.4163 1.875 15.2913 4.16667 15.2913C6.45833 15.2913 8.33333 13.4163 8.33333 11.1247L10.4167 13.208H13.5417L17.1875 6.85384L18.2292 7.89551C17.2917 8.62467 16.6667 9.87467 16.6667 11.1247C16.6667 13.4163 18.5417 15.2913 20.8333 15.2913C23.125 15.2913 25 13.4163 25 11.1247C25 8.83301 23.125 6.95801 20.8333 6.95801ZM4.16667 13.208C3.02083 13.208 2.08333 12.2705 2.08333 11.1247C2.08333 9.97884 3.02083 9.04134 4.16667 9.04134C5.3125 9.04134 6.25 9.97884 6.25 11.1247C6.25 12.2705 5.3125 13.208 4.16667 13.208ZM20.8333 13.208C19.6875 13.208 18.75 12.2705 18.75 11.1247C18.75 9.97884 19.6875 9.04134 20.8333 9.04134C21.9792 9.04134 22.9167 9.97884 22.9167 11.1247C22.9167 12.2705 21.9792 13.208 20.8333 13.208Z" fill="white"/>
</svg>
