<svg width="41" height="40" viewBox="0 0 41 40" fill="none" xmlns="http://www.w3.org/2000/svg">
<path d="M21.7822 0C31.9851 0 40.333 8.34786 40.333 18.5508V21.4492C40.333 31.6521 31.9851 40 21.7822 40H18.8838C8.68087 40 0.333008 31.6521 0.333008 21.4492V18.5508C0.333008 8.34786 8.68087 0 18.8838 0H21.7822ZM20.6977 10.0536L20.4396 10.0533C18.2904 10.0533 16.1412 10.1243 16.1412 10.1243C13.0021 10.1243 10.4573 12.6691 10.4573 15.8082C10.4573 15.8082 10.3921 17.6536 10.3867 19.6344L10.3863 19.8934C10.3863 22.1113 10.4573 24.405 10.4573 24.405C10.4573 27.5441 13.0021 30.0888 16.1412 30.0888C16.1412 30.0888 18.1506 30.1598 20.2265 30.1598C22.4443 30.1598 24.809 30.0888 24.809 30.0888C27.9481 30.0888 30.4218 27.6151 30.4218 24.476C30.4218 24.476 30.4929 22.2082 30.4929 20.0356L30.4916 19.5257C30.4819 17.5764 30.4218 15.7371 30.4218 15.7371C30.4218 12.598 27.9481 10.1243 24.809 10.1243C24.809 10.1243 22.7628 10.0589 20.6977 10.0536ZM20.4396 11.8628C22.202 11.8628 24.4616 11.9211 24.4616 11.9211C27.0357 11.9211 28.625 13.5104 28.625 16.0845C28.625 16.0845 28.6833 18.3055 28.6833 20.0482C28.6833 21.8298 28.625 24.1285 28.625 24.1285C28.625 26.7026 27.0357 28.2919 24.4616 28.2919C24.4616 28.2919 22.4633 28.3409 20.7294 28.349L20.2648 28.3502C18.5626 28.3502 16.4886 28.2919 16.4886 28.2919C13.9145 28.2919 12.2542 26.6315 12.2542 24.0575C12.2542 24.0575 12.1959 21.7504 12.1959 19.9317C12.1959 18.2296 12.2542 16.0845 12.2542 16.0845C12.2542 13.5104 13.9146 11.9211 16.4886 11.9211C16.4886 11.9211 18.6772 11.8628 20.4396 11.8628ZM20.4395 14.9567C17.5953 14.9567 15.2897 17.2623 15.2897 20.1065C15.2897 22.9507 17.5953 25.2563 20.4395 25.2563C23.2837 25.2563 25.5894 22.9507 25.5894 20.1065C25.5894 17.2623 23.2837 14.9567 20.4395 14.9567ZM20.4395 16.7554C22.2903 16.7554 23.7906 18.2557 23.7906 20.1065C23.7906 21.9573 22.2903 23.4576 20.4395 23.4576C18.5888 23.4576 17.0884 21.9573 17.0884 20.1065C17.0884 18.2557 18.5888 16.7554 20.4395 16.7554ZM25.8358 13.5275C25.1486 13.5275 24.5914 14.0874 24.5914 14.7781C24.5914 15.4687 25.1486 16.0285 25.8358 16.0285C26.523 16.0285 27.0801 15.4687 27.0801 14.7781C27.0801 14.0874 26.523 13.5275 25.8358 13.5275Z" fill="#2E2ACC"/>
</svg>
