<svg width="17" height="17" viewBox="0 0 17 17" fill="none" xmlns="http://www.w3.org/2000/svg">
<path d="M3.82479 5.19322C3.06833 5.19322 2.45637 4.58125 2.45637 3.82479C2.45637 3.46186 2.60054 3.1138 2.85717 2.85717C3.1138 2.60054 3.46186 2.45637 3.82479 2.45637C4.58125 2.45637 5.19322 3.06833 5.19322 3.82479C5.19322 4.18772 5.04905 4.53579 4.79242 4.79242C4.53579 5.04904 4.18772 5.19322 3.82479 5.19322ZM3.82479 0C1.69991 0 0 1.69991 0 3.82479C0 6.68914 3.82479 10.9304 3.82479 10.9304C3.82479 10.9304 7.64958 6.68914 7.64958 3.82479C7.64958 1.69991 5.94968 0 3.82479 0ZM13.1743 5.19322C12.8114 5.19322 12.4633 5.04904 12.2067 4.79242C11.95 4.53579 11.8059 4.18772 11.8059 3.82479C11.8059 3.06833 12.4178 2.45637 13.1743 2.45637C13.9307 2.45637 14.5427 3.06833 14.5427 3.82479C14.5427 4.18772 14.3985 4.53579 14.1419 4.79242C13.8853 5.04904 13.5372 5.19322 13.1743 5.19322ZM13.1743 0C11.0494 0 9.34949 1.69991 9.34949 3.82479C9.34949 6.68914 13.1743 10.9304 13.1743 10.9304C13.1743 10.9304 16.9991 6.68914 16.9991 3.82479C16.9991 1.69991 15.2992 0 13.1743 0ZM13.1743 11.8994C12.0948 11.8994 11.1344 12.5793 10.7774 13.5993H6.22166C5.75419 12.2733 4.29227 11.5764 2.97484 12.0438C1.64041 12.5113 0.943449 13.9732 1.41092 15.2992C1.8869 16.6251 3.34032 17.3221 4.67475 16.8546C5.39721 16.5996 5.94968 16.0216 6.22166 15.2992H10.7859C11.2534 16.6251 12.7153 17.3221 14.0242 16.8546C15.3672 16.3871 16.0641 14.9252 15.5967 13.5993C15.2312 12.5793 14.2622 11.8994 13.1743 11.8994ZM13.1743 15.7241C12.8362 15.7241 12.5119 15.5898 12.2728 15.3507C12.0337 15.1116 11.8994 14.7873 11.8994 14.4492C11.8994 14.1111 12.0337 13.7868 12.2728 13.5477C12.5119 13.3086 12.8362 13.1743 13.1743 13.1743C13.5124 13.1743 13.8367 13.3086 14.0758 13.5477C14.3149 13.7868 14.4492 14.1111 14.4492 14.4492C14.4492 14.7873 14.3149 15.1116 14.0758 15.3507C13.8367 15.5898 13.5124 15.7241 13.1743 15.7241Z" fill="white"/>
</svg>
