<svg width="18" height="18" viewBox="0 0 18 18" fill="none" xmlns="http://www.w3.org/2000/svg">
<path fill-rule="evenodd" clip-rule="evenodd" d="M2.12834 2.59293C3.1151 1.55524 3.46383 1.2642 3.88432 1.12875C4.17533 1.05263 4.48052 1.0484 4.77353 1.11644C5.15926 1.22838 5.2613 1.31345 6.52612 2.57166C7.63735 3.67651 7.74836 3.79628 7.85488 4.01233C8.05863 4.39156 8.09047 4.83955 7.94234 5.24367C7.83021 5.5515 7.67099 5.75523 6.99707 6.43023L6.55752 6.87021C6.44213 6.9873 6.415 7.16506 6.49024 7.31126C7.46691 8.97446 8.85241 10.3615 10.5158 11.3411C10.7073 11.4434 10.9431 11.4104 11.0989 11.2594L11.5216 10.8441C11.7829 10.5767 12.0596 10.3248 12.3503 10.0896C12.8069 9.80976 13.3757 9.78479 13.8551 10.0236C14.0894 10.1355 14.1668 10.2049 15.3128 11.3467C16.4947 12.5232 16.5283 12.5601 16.6584 12.8299C16.9031 13.2764 16.9006 13.8173 16.6516 14.2616C16.5249 14.5124 16.4476 14.603 15.7826 15.2814C15.3812 15.6911 15.0033 16.065 14.9427 16.1198C14.3942 16.5732 13.6905 16.7956 12.9804 16.74C11.6815 16.6218 10.4242 16.2209 9.2969 15.5657C6.79994 14.2449 4.67418 12.3207 3.11398 9.96871C2.77415 9.4764 2.47203 8.95924 2.21019 8.4217C1.50778 7.2198 1.14505 5.85031 1.16064 4.45897C1.21426 3.73109 1.56392 3.05683 2.12834 2.59293Z" stroke="white" stroke-width="1.12" stroke-linecap="round" stroke-linejoin="round"/>
</svg>
