<svg width="15" height="18" viewBox="0 0 15 18" fill="none" xmlns="http://www.w3.org/2000/svg">
<path d="M7.36364 0L0 3.27273V8.18182C0 12.7227 3.14182 16.9691 7.36364 18C11.5855 16.9691 14.7273 12.7227 14.7273 8.18182V3.27273L7.36364 0ZM7.36364 1.78364L13.0909 4.33636V8.36182C13.0909 9.75273 12.6818 11.1682 11.9864 12.4118C10.6364 11.4055 8.39454 11.0455 7.36364 11.0455C6.33273 11.0455 4.09091 11.4055 2.74091 12.4118C2.04545 11.1682 1.63636 9.75273 1.63636 8.36182V4.33636L7.36364 1.78364ZM7.36364 4.09091C6.60415 4.09091 5.87578 4.39261 5.33874 4.92965C4.8017 5.46668 4.5 6.19506 4.5 6.95455C4.5 7.71403 4.8017 8.44241 5.33874 8.97944C5.87578 9.51648 6.60415 9.81818 7.36364 9.81818C8.12312 9.81818 8.8515 9.51648 9.38853 8.97944C9.92557 8.44241 10.2273 7.71403 10.2273 6.95455C10.2273 6.19506 9.92557 5.46668 9.38853 4.92965C8.8515 4.39261 8.12312 4.09091 7.36364 4.09091ZM7.36364 5.72727C7.68913 5.72727 8.00129 5.85657 8.23145 6.08673C8.46161 6.31689 8.59091 6.62905 8.59091 6.95455C8.59091 7.28004 8.46161 7.5922 8.23145 7.82236C8.00129 8.05252 7.68913 8.18182 7.36364 8.18182C7.03814 8.18182 6.72598 8.05252 6.49582 7.82236C6.26566 7.5922 6.13636 7.28004 6.13636 6.95455C6.13636 6.62905 6.26566 6.31689 6.49582 6.08673C6.72598 5.85657 7.03814 5.72727 7.36364 5.72727ZM7.36364 12.6818C8.64818 12.6818 10.3418 13.1809 11.07 13.7782C10.0555 15.0382 8.75455 15.9955 7.36364 16.3636C5.97273 15.9955 4.67182 15.0382 3.65727 13.7782C4.39364 13.1809 6.07909 12.6818 7.36364 12.6818Z" fill="white"/>
</svg>
