<svg width="21" height="24" viewBox="0 0 21 24" fill="none" xmlns="http://www.w3.org/2000/svg">
<path d="M8.45833 7.83366H10.5417V14.0837H8.45833V7.83366ZM9.5 20.3337C5.46875 20.3337 2.20833 17.0732 2.20833 13.042C2.20833 9.01074 5.46875 5.75032 9.5 5.75032C12.8229 5.75032 15.625 7.97949 16.5 11.0107C16.7917 10.9587 17.0417 10.9587 17.3125 10.9587C17.7708 10.9587 18.2292 11.0107 18.6667 11.0941C18.3542 9.64616 17.7188 8.31282 16.8229 7.19824L18.3021 5.71907C17.8333 5.18782 17.3646 4.70866 16.8333 4.25032L15.3542 5.75032C13.7396 4.43782 11.7083 3.66699 9.5 3.66699C4.32292 3.66699 0.125 7.86491 0.125 13.042C0.125 18.2191 4.32292 22.417 9.5 22.417C10.4063 22.417 11.2708 22.2816 12.1042 22.0524C11.6354 21.4899 11.2708 20.8545 11.0104 20.1774C10.5417 20.2816 10.0208 20.3337 9.5 20.3337ZM12.625 0.541992H6.375V2.62533H12.625V0.541992ZM16.7917 13.5628V12.0003L14.4479 14.3441L16.7917 16.6878V15.1253C18.2292 15.1253 19.3958 16.292 19.3958 17.7295C19.3958 18.1462 19.3021 18.542 19.125 18.8962L20.2604 20.0316C20.6979 19.3753 20.9583 18.5837 20.9583 17.7295C20.9583 15.4274 19.0938 13.5628 16.7917 13.5628ZM16.7917 20.3337C15.3542 20.3337 14.1875 19.167 14.1875 17.7295C14.1875 17.3128 14.2813 16.917 14.4583 16.5628L13.3229 15.4274C12.8854 16.0837 12.625 16.8753 12.625 17.7295C12.625 20.0316 14.4896 21.8962 16.7917 21.8962V23.4587L19.1354 21.1149L16.7917 18.7712V20.3337Z" fill="white"/>
</svg>
