<svg width="41" height="40" viewBox="0 0 41 40" fill="none" xmlns="http://www.w3.org/2000/svg">
<path d="M20.667 0C9.62012 0 0.666992 8.95312 0.666992 20C0.666992 31.0469 9.62012 40 20.667 40C31.7139 40 40.667 31.0469 40.667 20C40.667 8.95312 31.7139 0 20.667 0ZM15.0732 28.3672H11.1748V15.8906H15.0732V28.3672ZM13.0186 14.3281H12.9873C11.5732 14.3281 10.6592 13.375 10.6592 12.1641C10.6592 10.9297 11.6045 10 13.042 10C14.4795 10 15.3623 10.9297 15.3936 12.1641C15.4014 13.3672 14.4873 14.3281 13.0186 14.3281ZM30.667 28.3672H26.2451V21.9141C26.2451 20.2266 25.5576 19.0703 24.0342 19.0703C22.8701 19.0703 22.2217 19.8516 21.9248 20.6016C21.8154 20.8672 21.8311 21.2422 21.8311 21.625V28.3672H17.4482C17.4482 28.3672 17.5029 16.9297 17.4482 15.8906H21.8311V17.8516C22.0889 16.9922 23.4873 15.7734 25.7217 15.7734C28.4951 15.7734 30.667 17.5703 30.667 21.4297V28.3672Z" fill="#2E2ACC"/>
</svg>
