<svg width="458" height="341" viewBox="0 0 458 341" fill="none" xmlns="http://www.w3.org/2000/svg">
<path d="M66.1139 80.0016C73.6379 85.0198 83.1374 84.2684 87.3255 78.3563C91.5136 72.4442 88.8213 63.5486 81.2973 58.5249C73.7734 53.5012 64.2795 54.2581 60.0857 60.1702C55.892 66.0823 58.5956 74.9889 66.1139 80.0016Z" fill="white"/>
<path d="M90.3066 83.5588C96.0412 75.4363 92.5587 63.4318 82.5283 56.746C72.4979 50.0602 59.7177 51.225 53.9831 59.3475C48.2485 67.4701 51.7309 79.4746 61.7614 86.1603C71.7918 92.8461 84.5719 91.6814 90.3066 83.5588Z" fill="black"/>
<path d="M91.9654 81.819C97.7438 73.7419 94.3423 61.733 84.3681 54.9962C74.3938 48.2595 61.6238 49.346 55.8455 57.4231C50.0671 65.5001 53.4685 77.5091 63.4428 84.2458C73.417 90.9826 86.187 89.896 91.9654 81.819Z" fill="url(#paint0_linear_517_7376)"/>
<path d="M57.9493 66.7295C57.9493 66.7295 58.0283 67.2779 58.2202 68.2048C58.49 69.5404 58.922 70.8401 59.5071 72.0767C60.3705 73.9095 61.5247 75.5992 62.9276 77.0839C63.7583 77.9542 64.6689 78.7491 65.6482 79.4587C66.7081 80.2117 67.8426 80.8603 69.0348 81.3946C71.3315 82.4489 73.8064 83.0882 76.3387 83.2812C78.4062 83.4334 80.4795 83.069 82.3612 82.2228C83.6144 81.6275 84.7585 80.8364 85.7478 79.881C86.0921 79.5354 86.3405 79.2503 86.5211 79.0693C86.6077 78.9674 86.7041 78.8737 86.809 78.7896C86.7392 78.9015 86.6578 79.0062 86.5663 79.1022C86.4026 79.2996 86.1655 79.6012 85.8269 79.9577C84.6216 81.2126 83.1404 82.1869 81.4936 82.8079C79.8468 83.429 78.077 83.6808 76.3161 83.5445C73.7453 83.365 71.2309 82.7253 68.8994 81.6579C67.6898 81.1139 66.54 80.4524 65.4676 79.6835C64.4801 78.9573 63.5619 78.146 62.7244 77.2594C61.3093 75.7503 60.156 74.0277 59.3096 72.159C58.7358 70.9037 58.3299 69.5822 58.1017 68.2267C58.0326 67.8641 57.9854 67.4978 57.9606 67.1298C57.941 66.9973 57.9372 66.8629 57.9493 66.7295Z" fill="#263238"/>
<path d="M64.7373 83.873C64.7373 83.873 64.8276 83.9005 64.98 83.9882L65.6348 84.3611C65.9742 84.5624 66.3247 84.7455 66.6846 84.9096C67.1023 85.107 67.5651 85.3703 68.1126 85.5732L68.9593 85.9242C69.2585 86.0448 69.5802 86.1326 69.9019 86.2478C70.551 86.4836 71.2679 86.6481 72.0186 86.8456C75.3024 87.6038 78.7161 87.6636 82.026 87.0211C82.7463 86.8734 83.4584 86.6904 84.1596 86.4726C84.487 86.3739 84.8144 86.2916 85.1135 86.182L85.9715 85.8584C86.5359 85.6719 86.9987 85.4306 87.4277 85.2441C87.8567 85.0577 88.2066 84.8712 88.4945 84.6957L89.1605 84.3447C89.2355 84.2969 89.3173 84.26 89.4032 84.235C89.4032 84.235 89.3355 84.2953 89.1944 84.394L88.5509 84.7889C88.2146 85.0051 87.8639 85.1993 87.5011 85.3703C87.0301 85.6148 86.5458 85.8345 86.0505 86.0284L85.1925 86.3739C84.8877 86.4891 84.566 86.5768 84.233 86.681C83.5252 86.9023 82.8054 87.0854 82.0768 87.2295C80.4049 87.5572 78.7024 87.7152 76.9969 87.7011C75.2857 87.6578 73.5835 87.4446 71.917 87.0649C71.1606 86.8565 70.4325 86.681 69.7834 86.4342C69.456 86.3136 69.1343 86.2149 68.8351 86.0887L67.9885 85.7213C67.4999 85.5119 67.0249 85.2738 66.5661 85.0083C66.2074 84.8294 65.8622 84.626 65.5332 84.3995L64.9066 83.9773C64.8473 83.9472 64.7906 83.9124 64.7373 83.873Z" fill="#263238"/>
<path d="M59.1895 63.5919C59.2192 63.4029 59.2742 63.2186 59.3531 63.0435C59.4206 62.8324 59.5055 62.627 59.6071 62.4292C59.7248 62.1622 59.8586 61.9021 60.0079 61.6504C60.3879 60.9879 60.8341 60.3634 61.34 59.7858C61.9688 59.0828 62.6727 58.4467 63.4397 57.8882C64.2196 57.346 65.0557 56.8846 65.9345 56.5116C66.6521 56.2123 67.3991 55.9844 68.164 55.8316C68.4565 55.7696 68.7524 55.7238 69.0502 55.6944C69.2746 55.663 69.5008 55.6446 69.7275 55.6396C69.9146 55.6123 70.1049 55.6123 70.292 55.6396C70.292 55.6944 69.4735 55.7109 68.1979 56.0125C67.4545 56.19 66.729 56.4323 66.0304 56.7365C64.3052 57.4752 62.7648 58.5678 61.5149 59.9393C61.0084 60.4979 60.555 61.1 60.1603 61.7382C59.5112 62.857 59.2459 63.6138 59.1895 63.5919Z" fill="white"/>
<g filter="url(#filter0_d_517_7376)">
<path d="M70.9627 64.1269L71.8146 65.1645L72.9735 64.2662L74.0048 65.5222L72.7771 66.4739C73.3646 67.4334 73.5781 68.2957 73.4176 69.0606C73.2646 69.8196 72.7063 70.5727 71.7424 71.3199L72.3366 72.0434C72.6878 72.4712 73.037 72.7516 73.3841 72.8847C73.7389 73.0119 74.096 72.9361 74.4555 72.6574C74.7998 72.3906 74.955 72.0841 74.9211 71.7379C74.8798 71.3827 74.676 70.9821 74.3099 70.5361L75.8015 69.3798C76.541 70.311 76.9022 71.1853 76.885 72.003C76.8604 72.8115 76.4579 73.5182 75.6777 74.123C74.8668 74.7515 74.0342 74.9724 73.1799 74.7857C72.3255 74.599 71.4911 74.0096 70.6765 73.0175L69.1856 71.2017C70.0041 70.5672 70.5897 70.076 70.9425 69.7281C71.2877 69.3711 71.4887 69.0365 71.5455 68.7245C71.6022 68.4124 71.5117 68.0506 71.2739 67.6391L67.8432 70.2986L66.8118 69.0425L70.3 66.3386L69.4481 65.301L65.9599 68.0049L64.8613 66.667L71.023 61.8906L72.1215 63.2286L70.9627 64.1269Z" fill="white"/>
</g>
<path d="M66.1629 79.2389C73.8732 84.3777 83.6266 83.577 87.9559 77.4455C92.2851 71.314 89.542 62.1826 81.8374 57.0437C74.1328 51.9049 64.368 52.7056 60.0388 58.8371C55.7095 64.9686 58.4527 74.1001 66.1629 79.2389Z" fill="black" fill-opacity="0.1"/>
<path d="M347.219 190.264C348.811 194.066 355.636 200.289 355.647 200.289C355.657 200.289 358.383 194.555 358.508 194.17C359.975 189.714 360.183 180.229 355.917 177.144C355.195 176.652 354.378 176.317 353.518 176.16C352.659 176.003 351.776 176.029 350.926 176.234C350.077 176.44 349.28 176.821 348.588 177.354C347.896 177.886 347.323 178.558 346.907 179.325C345.045 182.535 345.867 187.033 347.219 190.264Z" fill="url(#paint1_linear_517_7376)"/>
<path d="M456.465 251.057C453.073 247.037 443.626 247.941 439.277 249.707C438.903 249.862 433.295 252.937 433.367 253.01L433.451 253.083C431.952 253.207 430.329 253.363 428.613 253.571C425.387 253.976 421.756 254.464 417.844 255.254C413.626 256.053 409.457 257.094 405.359 258.37C400.758 259.816 396.294 261.666 392.02 263.897L391.864 263.99C392.957 262.889 395.88 259.731 396.078 259.461C398.866 255.68 402.019 246.735 398.939 242.476C398.407 241.783 397.734 241.21 396.965 240.793C396.197 240.376 395.349 240.125 394.477 240.057C393.604 239.988 392.728 240.104 391.903 240.395C391.078 240.687 390.324 241.148 389.69 241.749C386.912 244.211 386.298 248.74 386.568 252.241C386.88 256.178 391.042 263.668 391.375 264.271C387.079 266.644 382.943 269.295 378.994 272.208C376.684 273.901 374.416 275.667 372.158 277.474C373.063 276.498 373.875 275.615 373.969 275.48C376.757 271.699 379.899 262.754 376.819 258.495C376.287 257.804 375.615 257.232 374.847 256.816C374.079 256.4 373.232 256.15 372.362 256.081C371.491 256.013 370.615 256.128 369.792 256.418C368.968 256.709 368.215 257.168 367.58 257.768C364.802 260.23 364.178 264.759 364.459 268.26C364.74 271.761 368.163 278.264 369.089 279.968L366.509 282.045C362.399 285.432 358.32 288.818 354.211 292.018C352.764 293.15 351.297 294.21 349.841 295.27C350.642 294.407 351.308 293.67 351.401 293.545C354.19 289.764 357.342 280.819 354.263 276.56C353.73 275.867 353.058 275.294 352.289 274.877C351.52 274.46 350.672 274.209 349.8 274.141C348.928 274.072 348.051 274.188 347.226 274.479C346.402 274.771 345.648 275.232 345.013 275.833C342.235 278.295 341.621 282.824 341.892 286.315C342.162 289.805 345.263 295.664 346.355 297.742C344.826 298.781 343.296 299.82 341.767 300.786C340.727 301.399 339.686 302.074 338.646 302.635L335.451 304.37C333.371 305.409 331.29 306.447 329.209 307.403C327.783 308.078 326.42 308.691 325.047 309.315C326.504 308.203 329.302 305.98 329.511 305.762C332.332 302.742 334.325 299.045 335.295 295.031C335.626 294.713 335.925 294.365 336.19 293.992C336.708 293.289 337.073 292.486 337.261 291.633C337.448 290.781 337.455 289.899 337.279 289.044C337.103 288.189 336.75 287.38 336.242 286.67C335.733 285.961 335.081 285.365 334.328 284.923C329.719 282.398 321.218 286.616 317.795 289.837C317.598 290.034 315.641 292.34 314.424 293.815C315.007 292.839 315.579 291.893 316.162 290.886C317.337 288.891 318.44 286.865 319.647 284.653C320.188 283.614 320.688 282.513 321.281 281.422C321.874 280.331 322.321 279.147 322.852 278.004C324.027 275.324 325.089 272.55 326.088 269.694C327.835 270.732 334.109 274.233 337.616 274.607C341.122 274.981 345.658 274.503 348.207 271.802C348.826 271.186 349.308 270.447 349.622 269.633C349.937 268.818 350.077 267.947 350.032 267.076C349.988 266.204 349.761 265.352 349.366 264.573C348.971 263.795 348.417 263.108 347.739 262.557C343.577 259.357 334.525 262.245 330.655 264.915C330.416 265.081 327.856 267.304 326.493 268.551C327.086 266.858 327.679 265.164 328.22 263.429C329.791 258.412 331.217 253.29 332.653 248.179C333.1 246.621 333.558 245.063 334.016 243.505C334.63 243.879 341.985 248.231 345.918 248.699C349.404 249.073 353.961 248.585 356.51 245.884C357.129 245.268 357.612 244.529 357.927 243.715C358.243 242.902 358.383 242.031 358.34 241.159C358.297 240.288 358.071 239.435 357.677 238.656C357.283 237.877 356.729 237.19 356.052 236.638C351.89 233.438 342.828 236.326 338.958 238.996C338.666 239.194 334.994 242.404 334.099 243.266C335.139 239.838 336.128 236.43 337.22 233.116C338.754 228.627 340.575 224.241 342.672 219.986C342.963 220.162 350.621 224.733 354.637 225.18C358.133 225.564 362.68 225.076 365.229 222.375C365.848 221.759 366.331 221.021 366.646 220.207C366.962 219.393 367.102 218.522 367.059 217.65C367.016 216.779 366.79 215.926 366.396 215.147C366.002 214.369 365.448 213.681 364.771 213.129C360.609 209.93 351.558 212.818 347.687 215.487C347.385 215.695 343.432 219.144 342.755 219.819C342.88 219.58 342.974 219.31 343.109 219.061C345.335 214.858 347.929 210.861 350.86 207.115C352.452 205.037 354.096 203.115 355.73 201.297C357.072 202.336 363.242 206.782 366.81 207.582C370.379 208.382 374.822 208.351 377.652 205.951C378.336 205.407 378.898 204.725 379.301 203.95C379.705 203.176 379.941 202.325 379.994 201.453C380.047 200.581 379.915 199.708 379.609 198.89C379.302 198.073 378.827 197.328 378.214 196.705C374.416 193.07 365.104 194.95 360.973 197.173C360.745 197.298 358.591 198.783 357.041 199.884C357.79 199.074 358.549 198.222 359.288 197.464C362.045 194.586 364.75 192.135 367.154 189.974C368.537 188.758 369.807 187.688 371.003 186.701C372.835 186.992 380.201 188.094 383.676 187.159C387.151 186.224 391.146 184.167 392.54 180.728C392.895 179.931 393.078 179.068 393.078 178.196C393.078 177.324 392.895 176.461 392.54 175.664C392.185 174.867 391.666 174.154 391.017 173.569C390.369 172.985 389.605 172.543 388.774 172.272C383.728 170.787 376.289 176.739 373.688 180.583C373.459 180.926 370.494 186.577 370.566 186.598H370.67C369.505 187.522 368.257 188.53 366.914 189.662C364.449 191.74 361.712 194.181 358.861 196.996C355.781 200.006 352.877 203.19 350.163 206.533C347.107 210.262 344.391 214.257 342.048 218.469C342.048 218.469 342.048 218.573 341.975 218.625C342.277 217.108 343.015 212.859 343.015 212.527C343.244 207.842 340.935 198.638 336.003 196.789C335.177 196.506 334.3 196.399 333.43 196.476C332.56 196.553 331.715 196.811 330.951 197.234C330.188 197.657 329.521 198.235 328.995 198.932C328.469 199.628 328.095 200.427 327.898 201.276C326.941 204.86 328.938 208.974 331.092 211.737C333.527 214.854 341.143 218.812 341.746 219.123C339.472 223.469 337.487 227.959 335.805 232.566C334.765 235.246 333.891 237.978 333.006 240.721C333.225 239.412 333.412 238.227 333.423 238.061C333.652 233.376 331.342 224.182 326.41 222.323C325.584 222.04 324.707 221.934 323.837 222.01C322.967 222.087 322.123 222.345 321.359 222.768C320.595 223.191 319.928 223.77 319.402 224.466C318.876 225.162 318.502 225.961 318.305 226.811C317.348 230.395 319.345 234.519 321.499 237.272C323.653 240.025 330.114 243.588 331.831 244.492C331.498 245.53 331.154 246.569 330.79 247.66C329.23 252.74 327.669 257.82 326.046 262.754C325.463 264.489 324.818 266.182 324.194 267.876C324.381 266.702 324.537 265.725 324.537 265.569C324.777 260.884 322.456 251.68 317.535 249.831C316.709 249.548 315.834 249.441 314.964 249.518C314.094 249.594 313.251 249.851 312.487 250.273C311.723 250.695 311.056 251.272 310.53 251.967C310.003 252.662 309.629 253.46 309.43 254.309C308.473 257.903 310.47 262.017 312.624 264.78C314.778 267.543 320.615 270.743 322.644 271.834C321.947 273.548 321.249 275.262 320.49 276.893C319.949 277.994 319.502 279.095 318.898 280.175C318.295 281.256 317.754 282.315 317.181 283.375C316.026 285.37 314.83 287.437 313.654 289.359C312.832 290.699 312.031 291.956 311.23 293.233C311.833 291.509 312.936 288.112 312.999 287.821C313.935 283.219 312.999 273.776 308.462 271.2C307.688 270.794 306.837 270.556 305.965 270.5C305.093 270.443 304.218 270.571 303.398 270.873C302.578 271.176 301.831 271.647 301.205 272.256C300.579 272.865 300.088 273.599 299.764 274.41C298.277 277.807 299.619 282.18 301.335 285.234C303.229 288.6 309.857 293.545 310.699 294.106C309.368 296.184 308.046 298.261 306.767 300.142C306.121 301.108 305.497 302.043 304.883 302.936L307.141 305.315C307.869 304.204 308.618 303.05 309.388 301.845C310.751 299.768 312.166 297.41 313.55 295.031C316.012 296.02 318.531 296.863 321.093 297.555C321.031 301.513 323.663 308.743 324.007 309.678C321.728 310.717 319.512 311.662 317.4 312.545C316.527 312.861 315.633 313.118 314.726 313.314L317.14 315.838C317.651 315.738 318.152 315.591 318.638 315.402C320.948 314.363 323.403 313.241 325.921 312.036C326.493 312.878 331.217 319.651 334.536 321.635C337.543 323.443 341.881 324.907 345.336 323.515C346.155 323.214 346.901 322.745 347.528 322.138C348.154 321.531 348.645 320.799 348.971 319.991C349.296 319.182 349.449 318.314 349.417 317.444C349.386 316.573 349.172 315.718 348.79 314.935C346.345 310.281 336.918 309.117 332.289 309.917C332.018 309.969 329.115 310.81 327.284 311.382C328.324 310.883 329.302 310.416 330.353 309.896C332.434 308.857 334.515 307.819 336.669 306.645L339.79 304.858C340.831 304.276 341.871 303.528 342.984 302.863C345.45 301.274 347.864 299.55 350.267 297.752C351.162 299.56 354.429 305.959 357.155 308.203C359.881 310.447 363.918 312.545 367.559 311.693C368.416 311.521 369.227 311.17 369.94 310.665C370.653 310.159 371.251 309.51 371.696 308.759C372.142 308.008 372.424 307.171 372.525 306.304C372.626 305.437 372.544 304.559 372.283 303.726C370.566 298.76 361.431 296.184 356.728 296.277C356.437 296.277 353.077 296.734 351.235 297.015C352.66 295.924 354.096 294.844 355.501 293.691C359.579 290.366 363.606 286.886 367.632 283.417C368.86 282.378 370.098 281.339 371.336 280.3C371.648 280.944 375.384 288.611 378.422 291.145C381.127 293.379 385.195 295.488 388.826 294.636C389.683 294.463 390.494 294.113 391.207 293.607C391.919 293.102 392.518 292.452 392.963 291.701C393.408 290.95 393.691 290.114 393.792 289.247C393.893 288.38 393.81 287.501 393.55 286.668C391.833 281.702 382.698 279.126 377.943 279.22C377.589 279.22 372.741 279.885 371.524 280.103C374.25 277.796 376.996 275.521 379.785 273.392C383.542 270.492 387.483 267.837 391.583 265.445C391.729 265.746 395.589 273.755 398.7 276.363C401.405 278.596 405.473 280.705 409.104 279.853C409.962 279.682 410.774 279.332 411.488 278.827C412.202 278.322 412.802 277.673 413.248 276.922C413.694 276.17 413.977 275.334 414.079 274.466C414.181 273.599 414.099 272.719 413.838 271.886C412.122 266.92 402.976 264.344 398.284 264.437C397.909 264.437 392.707 265.154 391.771 265.341C392.01 265.206 392.239 265.04 392.478 264.905C396.656 262.628 401.029 260.73 405.546 259.233C408.033 258.36 410.457 257.674 412.829 257.061C413.391 258.63 416.054 265.777 418.604 268.405C421.153 271.034 424.846 273.465 428.54 273.007C429.41 272.93 430.255 272.672 431.019 272.248C431.783 271.824 432.45 271.245 432.976 270.548C433.501 269.85 433.875 269.051 434.071 268.2C434.268 267.35 434.283 266.468 434.116 265.611C432.962 260.49 424.159 256.926 419.478 256.511C419.217 256.511 416.606 256.511 414.702 256.604C415.742 256.345 416.887 256.054 417.917 255.815C421.798 254.942 425.408 254.381 428.613 253.914C430.433 253.654 432.088 253.457 433.638 253.301C434.99 254.547 440.536 259.534 443.949 260.666C447.361 261.798 451.825 262.276 454.894 260.188C455.634 259.722 456.268 259.106 456.754 258.38C457.24 257.653 457.568 256.833 457.716 255.972C457.864 255.111 457.829 254.228 457.614 253.382C457.398 252.535 457.007 251.743 456.465 251.057Z" fill="url(#paint2_linear_517_7376)"/>
<path d="M413.392 256.199C413.392 256.292 418.854 252.926 419.177 252.677C422.86 249.758 428.26 241.967 426.46 237.095C426.127 236.289 425.629 235.563 424.997 234.961C424.366 234.36 423.615 233.898 422.793 233.604C421.972 233.31 421.098 233.192 420.227 233.256C419.357 233.321 418.51 233.567 417.741 233.978C414.401 235.63 412.611 239.827 411.956 243.276C411.144 247.244 413.392 256.199 413.392 256.199Z" fill="url(#paint3_linear_517_7376)"/>
<path d="M111.008 190.264C109.416 194.066 102.591 200.289 102.591 200.289C102.591 200.289 99.8437 194.555 99.7189 194.17C98.2519 189.714 98.0542 180.229 102.31 177.144C103.031 176.652 103.849 176.317 104.708 176.16C105.568 176.003 106.451 176.029 107.301 176.234C108.15 176.44 108.947 176.821 109.639 177.354C110.331 177.886 110.904 178.558 111.32 179.325C113.182 182.535 112.36 187.033 111.008 190.264Z" fill="url(#paint4_linear_517_7376)"/>
<path d="M1.76163 251.057C5.15347 247.037 14.6111 247.941 18.9601 249.707C19.3347 249.862 24.9322 252.937 24.8698 253.01L24.7866 253.083C26.2744 253.207 27.9079 253.363 29.6246 253.571C32.8396 253.976 36.4707 254.464 40.3932 255.254C44.6111 256.054 48.7796 257.095 52.8785 258.37C57.4849 259.802 61.9555 261.637 66.2378 263.855L66.3834 263.949C65.343 262.848 62.3673 259.69 62.2217 259.42C59.4437 255.638 56.2911 246.694 59.3708 242.435C59.9034 241.743 60.5753 241.171 61.3432 240.756C62.111 240.34 62.9577 240.09 63.8286 240.021C64.6994 239.952 65.5749 240.067 66.3985 240.358C67.2221 240.648 67.9755 241.108 68.61 241.708C71.3879 244.17 72.0122 248.699 71.7313 252.2C71.4192 256.137 67.2574 263.627 66.9245 264.229C71.2219 266.6 75.3579 269.251 79.3057 272.166C81.6155 273.859 83.894 275.625 86.1518 277.433C85.2362 276.456 84.4351 275.573 84.3414 275.438C81.553 271.657 78.4005 262.713 81.4802 258.453C82.0128 257.76 82.6852 257.187 83.454 256.77C84.2228 256.353 85.0707 256.103 85.9429 256.034C86.815 255.966 87.6918 256.081 88.5164 256.372C89.3411 256.664 90.0951 257.125 90.7297 257.726C93.5077 260.188 94.1216 264.718 93.8511 268.218C93.5805 271.719 90.1471 278.222 89.2211 279.926L91.791 282.004C95.9528 285.39 99.9897 288.777 104.089 291.977C105.535 293.109 107.002 294.168 108.469 295.228C107.668 294.366 106.992 293.628 106.898 293.504C104.12 289.722 100.968 280.778 104.047 276.519C104.58 275.827 105.252 275.255 106.02 274.84C106.788 274.424 107.634 274.174 108.505 274.105C109.376 274.037 110.251 274.151 111.075 274.442C111.899 274.732 112.652 275.192 113.287 275.792C116.064 278.254 116.689 282.783 116.408 286.273C116.127 289.764 113.037 295.623 111.944 297.7C113.474 298.739 115.066 299.778 116.543 300.744C117.584 301.357 118.624 302.032 119.664 302.593L122.869 304.328C124.95 305.367 127.031 306.406 129.112 307.362C130.527 308.037 131.89 308.65 133.273 309.273C131.827 308.161 129.028 305.938 128.81 305.72C125.996 302.695 124.004 299.001 123.025 294.989C122.698 294.671 122.402 294.323 122.141 293.95C121.622 293.248 121.257 292.445 121.068 291.593C120.88 290.741 120.873 289.86 121.047 289.005C121.222 288.15 121.574 287.341 122.082 286.631C122.589 285.921 123.24 285.325 123.993 284.881C128.612 282.357 137.113 286.575 140.525 289.795C140.733 289.992 142.689 292.299 143.896 293.774C143.314 292.797 142.741 291.852 142.159 290.844C140.993 288.85 139.88 286.824 138.684 284.611L137.04 281.38C136.468 280.342 135.999 279.105 135.469 277.963C134.303 275.282 133.242 272.509 132.233 269.652C130.485 270.691 124.222 274.192 120.715 274.566C117.209 274.94 112.673 274.462 110.124 271.761C109.504 271.145 109.021 270.406 108.706 269.593C108.391 268.779 108.25 267.908 108.293 267.036C108.337 266.165 108.563 265.312 108.957 264.533C109.351 263.755 109.904 263.067 110.581 262.515C114.743 259.316 123.805 262.204 127.665 264.873C127.915 265.04 130.475 267.263 131.827 268.509C131.245 266.816 130.641 265.123 130.1 263.388C128.539 258.37 127.114 253.249 125.668 248.138C125.231 246.58 124.763 245.021 124.315 243.463C123.691 243.837 116.335 248.19 112.413 248.657C108.917 249.031 104.37 248.543 101.821 245.842C101.202 245.226 100.719 244.488 100.403 243.674C100.088 242.86 99.9476 241.989 99.9907 241.118C100.034 240.246 100.26 239.393 100.654 238.615C101.048 237.836 101.602 237.148 102.279 236.596C106.44 233.397 115.503 236.285 119.363 238.955C119.654 239.152 123.337 242.362 124.232 243.224C123.191 239.796 122.203 236.389 121.048 233.075C119.519 228.584 117.698 224.198 115.596 219.944C115.315 220.121 107.658 224.692 103.631 225.138C100.146 225.523 95.5886 225.034 93.0395 222.333C92.4202 221.718 91.9374 220.979 91.6221 220.165C91.3068 219.351 91.1662 218.48 91.2094 217.609C91.2525 216.737 91.4785 215.885 91.8726 215.106C92.2667 214.327 92.8202 213.639 93.4973 213.088C97.6591 209.888 106.721 212.776 110.592 215.446C110.893 215.654 114.847 219.103 115.513 219.778C115.399 219.539 115.295 219.269 115.17 219.019C112.944 214.817 110.35 210.819 107.418 207.073C105.827 204.995 104.183 203.073 102.539 201.255C101.207 202.294 95.0372 206.741 91.4581 207.54C88.035 208.299 83.4571 208.309 80.6271 205.909C79.9429 205.365 79.3809 204.684 78.9775 203.909C78.574 203.134 78.3382 202.283 78.2852 201.412C78.2323 200.54 78.3633 199.667 78.67 198.849C78.9766 198.031 79.452 197.287 80.0652 196.664C83.8628 193.028 93.1644 194.908 97.3053 197.131C97.5342 197.256 99.6775 198.742 101.228 199.843C100.479 199.032 99.7191 198.181 98.9804 197.422C96.2337 194.545 93.5285 192.093 91.1147 189.932C89.7413 188.717 88.472 187.647 87.2651 186.66C85.4443 186.951 78.0676 188.052 74.5925 187.117C71.1174 186.182 67.1325 184.125 65.7279 180.687C65.38 179.892 65.2018 179.034 65.2048 178.167C65.2078 177.3 65.3919 176.443 65.7454 175.651C66.0989 174.86 66.614 174.15 67.2577 173.568C67.9014 172.986 68.6597 172.545 69.4839 172.272C74.5405 170.787 81.9692 176.739 84.5703 180.583C84.7992 180.926 87.7749 186.577 87.6917 186.598H87.5772C88.7529 187.522 90.0014 188.53 91.3436 189.662C93.799 191.74 96.5458 194.181 99.3966 196.996C102.473 200.006 105.374 203.19 108.084 206.533C111.14 210.262 113.856 214.257 116.2 218.469C116.23 218.518 116.255 218.57 116.273 218.625C115.971 217.108 115.232 212.859 115.232 212.527C115.003 207.842 117.313 198.638 122.234 196.789C123.061 196.504 123.939 196.396 124.81 196.472C125.682 196.548 126.527 196.806 127.292 197.229C128.058 197.652 128.725 198.231 129.252 198.928C129.778 199.625 130.153 200.425 130.35 201.276C131.297 204.86 129.309 208.974 127.156 211.737C124.711 214.854 117.105 218.812 116.491 219.123C118.769 223.469 120.757 227.959 122.442 232.566C123.431 235.246 124.346 237.978 125.231 240.721C125.023 239.412 124.835 238.227 124.825 238.061C124.596 233.376 126.906 224.182 131.827 222.323C132.654 222.038 133.532 221.931 134.403 222.007C135.274 222.082 136.12 222.34 136.885 222.763C137.65 223.187 138.318 223.765 138.845 224.463C139.371 225.16 139.745 225.96 139.943 226.811C140.9 230.395 138.902 234.519 136.748 237.272C134.595 240.025 128.134 243.588 126.417 244.492C126.75 245.53 127.083 246.569 127.457 247.66C129.018 252.74 130.579 257.82 132.212 262.754C132.795 264.489 133.429 266.182 134.064 267.876C133.866 266.702 133.721 265.725 133.71 265.569C133.481 260.884 135.791 251.68 140.713 249.831C141.539 249.547 142.416 249.438 143.286 249.514C144.157 249.589 145.002 249.846 145.767 250.268C146.533 250.69 147.2 251.268 147.727 251.964C148.255 252.66 148.63 253.459 148.828 254.309C149.785 257.903 147.788 262.017 145.634 264.78C143.48 267.543 137.643 270.743 135.614 271.834C136.311 273.548 137.009 275.262 137.768 276.893C138.309 277.994 138.746 279.095 139.35 280.175C139.953 281.256 140.504 282.315 141.066 283.375C142.232 285.37 143.418 287.437 144.604 289.359C145.415 290.699 146.216 291.956 147.018 293.233C146.414 291.509 145.311 288.112 145.259 287.821C144.312 283.219 145.259 273.776 149.796 271.2C150.569 270.796 151.419 270.559 152.29 270.504C153.162 270.448 154.035 270.576 154.853 270.879C155.672 271.181 156.418 271.652 157.043 272.26C157.669 272.868 158.159 273.601 158.483 274.41C159.971 277.807 158.639 282.18 156.923 285.234C155.029 288.6 148.401 293.545 147.559 294.106C148.89 296.184 150.212 298.261 151.481 300.142C152.126 301.108 152.761 302.043 153.375 302.936L151.117 305.315C150.378 304.204 149.64 303.05 148.87 301.845C147.507 299.768 146.092 297.41 144.656 295.031C142.194 296.022 139.675 296.865 137.113 297.555C137.185 301.513 134.553 308.743 134.199 309.678C136.478 310.717 138.704 311.662 140.817 312.545C141.686 312.861 142.576 313.118 143.48 313.314L141.077 315.838C140.565 315.739 140.063 315.593 139.578 315.402C137.258 314.363 134.803 313.241 132.295 312.036C131.723 312.878 127.01 319.651 123.691 321.635C120.674 323.443 116.335 324.907 112.891 323.515C112.071 323.215 111.323 322.747 110.696 322.14C110.069 321.534 109.576 320.802 109.249 319.994C108.923 319.185 108.77 318.317 108.8 317.445C108.831 316.574 109.044 315.719 109.426 314.935C111.882 310.281 121.298 309.117 125.928 309.917C126.209 309.969 129.112 310.81 130.932 311.382C129.892 310.883 128.914 310.416 127.873 309.896C125.793 308.857 123.712 307.819 121.558 306.645L118.437 304.858C117.396 304.276 116.356 303.528 115.232 302.863C112.777 301.274 110.363 299.55 107.949 297.752C107.054 299.56 103.787 305.959 101.061 308.203C98.3354 310.447 94.288 312.545 90.6569 311.693C89.8 311.521 88.9889 311.17 88.2763 310.665C87.5637 310.159 86.9653 309.51 86.52 308.759C86.0747 308.008 85.7924 307.171 85.6913 306.304C85.5903 305.437 85.6727 304.559 85.9333 303.726C87.65 298.76 96.7851 296.184 101.54 296.277C101.831 296.277 105.202 296.734 107.044 297.015C105.608 295.924 104.183 294.844 102.768 293.691C98.6891 290.366 94.673 286.886 90.6465 283.417C89.4188 282.378 88.1702 281.339 86.9321 280.3C86.62 280.944 82.8848 288.611 79.8467 291.145C77.1416 293.379 73.0839 295.488 69.4423 294.636C68.5854 294.463 67.7743 294.113 67.0617 293.607C66.3491 293.102 65.7507 292.452 65.3054 291.701C64.8601 290.95 64.5778 290.114 64.4767 289.247C64.3757 288.38 64.4581 287.501 64.7187 286.668C66.4354 281.702 75.5705 279.126 80.3253 279.22C80.6791 279.22 85.5275 279.885 86.7345 280.103C84.0085 277.796 81.2721 275.521 78.4733 273.392C74.7196 270.487 70.7782 267.832 66.6747 265.445C66.5395 265.746 62.6795 273.755 59.5581 276.363C56.8634 278.596 52.7953 280.705 49.1537 279.853C48.2968 279.681 47.4857 279.33 46.7731 278.825C46.0605 278.319 45.4621 277.67 45.0168 276.919C44.5715 276.167 44.2892 275.331 44.1881 274.464C44.0871 273.597 44.1695 272.719 44.4301 271.886C46.1468 266.92 55.2819 264.344 60.0367 264.437C60.4009 264.437 65.6135 265.154 66.5499 265.341L65.832 264.905C61.6559 262.619 57.2823 260.714 52.764 259.212C50.2774 258.339 47.8532 257.654 45.481 257.041C44.9191 258.609 42.2556 265.756 39.7169 268.385C37.1782 271.013 33.4743 273.444 29.7703 272.987C28.9005 272.908 28.0569 272.648 27.294 272.224C26.5311 271.8 25.8659 271.22 25.3412 270.523C24.8166 269.826 24.4444 269.027 24.2484 268.177C24.0525 267.327 24.0374 266.446 24.2039 265.59C25.3588 260.469 34.161 256.906 38.8429 256.49C39.0927 256.49 41.7042 256.49 43.6082 256.584C42.5677 256.324 41.4336 256.033 40.3932 255.794C36.5124 254.921 32.902 254.36 29.7079 253.893C27.8767 253.633 26.2328 253.436 24.6825 253.28C23.3196 254.527 17.774 259.513 14.3614 260.645C10.9487 261.778 6.48523 262.256 3.41593 260.168C2.6726 259.708 2.03421 259.098 1.54208 258.377C1.04995 257.655 0.715072 256.839 0.55912 255.98C0.403167 255.121 0.429621 254.239 0.636771 253.391C0.84392 252.543 1.22714 251.748 1.76163 251.057Z" fill="url(#paint5_linear_517_7376)"/>
<path d="M44.836 256.199C44.836 256.292 39.3737 252.926 39.0616 252.677C35.3784 249.758 29.9681 241.967 31.7785 237.095C32.1113 236.289 32.6096 235.563 33.2411 234.961C33.8727 234.36 34.6235 233.898 35.445 233.604C36.2666 233.31 37.1407 233.192 38.0109 233.256C38.8812 233.321 39.7282 233.567 40.4974 233.978C43.8268 235.63 45.6267 239.827 46.2822 243.276C47.0938 247.244 44.836 256.199 44.836 256.199Z" fill="url(#paint6_linear_517_7376)"/>
<path d="M316.693 22.3483V337.592C316.693 341.746 315.04 345.731 312.097 348.669C309.155 351.607 305.164 353.257 301.003 353.257H164.58C160.419 353.257 156.428 351.607 153.486 348.669C150.544 345.731 148.891 341.746 148.891 337.592V22.3483C148.891 18.1953 150.542 14.2123 153.482 11.2747C156.423 8.33715 160.411 6.68546 164.57 6.6827H223.126L223.178 6.86969C224.635 12.0638 227.995 15.5231 231.72 15.5231H233.801C237.536 15.5231 240.897 12.1054 242.353 6.86969L242.405 6.6827H300.951C303.016 6.67587 305.062 7.07602 306.971 7.86023C308.881 8.64444 310.617 9.79727 312.079 11.2526C313.542 12.708 314.702 14.4373 315.494 16.3413C316.285 18.2453 316.693 20.2867 316.693 22.3483Z" fill="#EBEBEB" stroke="#1E1E1E" stroke-linecap="round" stroke-linejoin="round"/>
<path d="M327.357 97.6423V66.1554H324.507V25.8488C324.507 19.2585 321.885 12.9381 317.217 8.27805C312.55 3.61799 306.22 1 299.619 1H165.954C159.353 1 153.023 3.61799 148.356 8.27805C143.688 12.9381 141.066 19.2585 141.066 25.8488V346.151C141.066 352.741 143.688 359.062 148.356 363.722C153.023 368.382 159.353 371 165.954 371H299.619C306.22 371 312.55 368.382 317.217 363.722C321.885 359.062 324.507 352.741 324.507 346.151V124.475H327.357V105.87H324.507V97.6423H327.357ZM316.693 328.408C316.69 334.997 314.067 341.316 309.4 345.976C304.734 350.635 298.405 353.254 291.806 353.257H173.778C167.177 353.257 160.847 350.639 156.18 345.979C151.513 341.319 148.891 334.998 148.891 328.408V31.5312C148.891 24.9409 151.513 18.6205 156.18 13.9604C160.847 9.30039 167.177 6.6824 173.778 6.6824H223.126L223.178 6.86939C224.635 12.0635 227.995 15.5228 231.72 15.5228H233.801C237.536 15.5228 240.897 12.1051 242.353 6.86939L242.405 6.6824H291.753C295.026 6.67694 298.267 7.31556 301.292 8.56176C304.317 9.80796 307.066 11.6373 309.382 13.9451C311.698 16.2529 313.536 18.994 314.791 22.0116C316.045 25.0292 316.692 28.264 316.693 31.5312V328.408Z" fill="#808080" stroke="#1E1E1E" stroke-linecap="round" stroke-linejoin="round"/>
<path d="M297.632 4.42773H167.951C164.799 4.42773 161.678 5.04762 158.766 6.25202C155.853 7.45641 153.207 9.22172 150.979 11.4472C148.75 13.6726 146.982 16.3146 145.775 19.2222C144.569 22.1299 143.948 25.2463 143.948 28.3935V343.616C143.948 349.972 146.477 356.068 150.979 360.562C155.48 365.057 161.585 367.582 167.951 367.582H297.632C300.783 367.582 303.904 366.962 306.816 365.757C309.727 364.553 312.373 362.787 314.601 360.562C316.829 358.336 318.596 355.694 319.801 352.787C321.006 349.879 321.626 346.763 321.624 343.616V28.3935C321.626 25.2468 321.006 22.1306 319.801 19.223C318.596 16.3154 316.829 13.6734 314.601 11.4478C312.373 9.22222 309.727 7.45675 306.816 6.25223C303.904 5.0477 300.783 4.42773 297.632 4.42773ZM316.693 329.291C316.693 335.647 314.164 341.743 309.662 346.237C305.161 350.731 299.056 353.256 292.69 353.256H172.893C166.527 353.256 160.422 350.731 155.921 346.237C151.419 341.743 148.89 335.647 148.89 329.291V30.6374C148.89 24.284 151.418 18.1909 155.918 13.6984C160.417 9.20586 166.52 6.68199 172.883 6.68199H223.126L223.178 6.86898C224.634 12.0631 227.995 15.5224 231.72 15.5224H233.801C237.536 15.5224 240.897 12.1047 242.353 6.86898L242.405 6.68199H292.638C295.794 6.67516 298.921 7.29002 301.839 8.49135C304.757 9.69269 307.41 11.4569 309.644 13.683C311.878 15.9091 313.651 18.5534 314.861 21.4645C316.07 24.3755 316.693 27.4962 316.693 30.6478V329.291Z" fill="#1E1E1E" stroke="#1E1E1E" stroke-linecap="round" stroke-linejoin="round"/>
<path d="M234.613 7.87703C234.615 7.41387 234.479 6.96053 234.222 6.57456C233.966 6.1886 233.6 5.88741 233.172 5.70921C232.744 5.53101 232.273 5.48385 231.817 5.57371C231.362 5.66356 230.944 5.88639 230.616 6.2139C230.288 6.54141 230.065 6.95884 229.975 7.41321C229.885 7.86758 229.932 8.3384 230.111 8.76592C230.289 9.19344 230.591 9.55838 230.978 9.81442C231.364 10.0705 231.818 10.2061 232.282 10.204C232.9 10.204 233.493 9.95884 233.93 9.52245C234.367 9.08606 234.613 8.49418 234.613 7.87703Z" fill="white"/>
<path d="M163.8 16.8426C163.8 19.2007 161.146 20.0526 161.136 21.8497V21.9744H163.716V22.7743H160.272V22.0367C160.272 19.5124 162.926 19.0137 162.926 16.8426C162.926 16.0427 162.665 15.6167 162.01 15.6167C161.355 15.6167 161.094 16.0738 161.094 16.7698V17.4659H160.272V16.8426C160.272 15.6479 160.824 14.8584 162.031 14.8584C163.238 14.8584 163.8 15.6167 163.8 16.8426Z" fill="#1E1E1E"/>
<path d="M168.097 16.8423V17.0397C168.138 17.3758 168.066 17.7159 167.893 18.007C167.72 18.2982 167.455 18.5241 167.14 18.6499C167.457 18.7794 167.722 19.0092 167.895 19.3039C168.068 19.5985 168.139 19.9418 168.097 20.2808V20.8833C168.097 22.078 167.536 22.8571 166.329 22.8571C165.122 22.8571 164.57 22.078 164.57 20.8833V20.3432H165.382V20.9353C165.382 21.6417 165.673 22.0676 166.308 22.0676C166.942 22.0676 167.223 21.6521 167.223 20.8626V20.2497C167.223 19.4809 166.901 19.1173 166.235 19.0862H165.767V18.307H166.245C166.378 18.3077 166.509 18.2805 166.631 18.2273C166.752 18.174 166.861 18.0959 166.95 17.998C167.04 17.9 167.107 17.7845 167.149 17.6587C167.191 17.533 167.205 17.4 167.192 17.2682V16.8423C167.192 16.0424 166.911 15.6269 166.277 15.6269C165.642 15.6269 165.351 16.0632 165.351 16.7696V17.1747H164.539V16.8423C164.539 15.6476 165.101 14.8789 166.297 14.8789C167.494 14.8789 168.097 15.6061 168.097 16.8423Z" fill="#1E1E1E"/>
<path d="M169.781 17.3926V18.4314H168.95V17.3926H169.781ZM169.781 21.6518V22.7426H168.95V21.6518H169.781Z" fill="#1E1E1E"/>
<path d="M171.562 18.0994C171.676 17.8931 171.845 17.7232 172.052 17.6092C172.258 17.4952 172.492 17.4419 172.727 17.4553C173.768 17.4553 174.174 18.1929 174.174 19.3044V20.8419C174.174 22.0365 173.612 22.8157 172.405 22.8157C171.198 22.8157 170.646 22.0365 170.646 20.8419V20.3121H171.448V20.8938C171.448 21.6002 171.739 22.0261 172.363 22.0261C172.987 22.0261 173.289 21.6002 173.289 20.8938V19.3771C173.289 18.6707 172.998 18.2448 172.363 18.2448C172.249 18.2406 172.136 18.2592 172.03 18.2995C171.923 18.3398 171.826 18.401 171.743 18.4794C171.661 18.5578 171.595 18.6519 171.55 18.7561C171.504 18.8603 171.48 18.9726 171.479 19.0863V19.2629H170.667L170.875 14.9102H173.997V15.6893H171.687L171.562 18.0994Z" fill="#1E1E1E"/>
<path d="M178.533 16.8428V16.9883H177.69V16.739C177.69 16.0325 177.398 15.617 176.764 15.617C176.129 15.617 175.807 16.0429 175.807 16.8844V18.64C175.897 18.3805 176.07 18.1577 176.299 18.0058C176.529 17.8538 176.801 17.781 177.076 17.7986C178.116 17.7986 178.533 18.5257 178.533 19.6581V20.8423C178.533 22.037 177.929 22.8161 176.733 22.8161C175.536 22.8161 174.933 22.037 174.933 20.8423V16.8428C174.933 15.6066 175.494 14.8379 176.733 14.8379C177.971 14.8379 178.533 15.5962 178.533 16.8428ZM175.838 19.7723V20.8943C175.838 21.6007 176.129 22.0266 176.764 22.0266C177.398 22.0266 177.7 21.6007 177.7 20.8943V19.7204C177.7 19.014 177.398 18.5881 176.764 18.5881C176.129 18.5881 175.838 19.014 175.838 19.7204V19.7723Z" fill="#1E1E1E"/>
<path d="M264.14 17.1338H261.924V22.6604H264.14V17.1338Z" fill="#1E1E1E"/>
<path d="M267.095 16.0322H264.879V22.6703H267.095V16.0322Z" fill="#1E1E1E"/>
<path d="M270.039 15.2422H267.823V22.6594H270.039V15.2422Z" fill="#1E1E1E"/>
<path d="M272.994 13.8711H270.778V22.6596H272.994V13.8711Z" fill="#1E1E1E"/>
<path d="M300.389 22.5042H287.103V14.4014H300.389V22.5042ZM287.841 21.7771H299.65V15.1389H287.841V21.7771Z" fill="#1E1E1E"/>
<path d="M295.968 15.9385H288.955V20.9664H295.968V15.9385Z" fill="#1E1E1E"/>
<path d="M301.607 17.4961H299.932V19.407H301.607V17.4961Z" fill="#1E1E1E"/>
<path d="M282.233 20.7475C282.145 20.7479 282.058 20.7227 281.984 20.6748C279.278 19.0755 277.489 20.5606 277.416 20.6748C277.37 20.721 277.316 20.7576 277.256 20.7827C277.197 20.8077 277.132 20.8206 277.067 20.8206C277.003 20.8206 276.938 20.8077 276.879 20.7827C276.819 20.7576 276.764 20.721 276.719 20.6748C276.628 20.5817 276.577 20.4569 276.577 20.3269C276.577 20.1969 276.628 20.0721 276.719 19.979C276.823 19.8959 279.102 17.9019 282.452 19.979C282.507 20.0121 282.556 20.0559 282.595 20.1079C282.633 20.1598 282.661 20.219 282.676 20.2818C282.692 20.3446 282.695 20.4098 282.685 20.4738C282.675 20.5377 282.652 20.5989 282.618 20.6541C282.564 20.6945 282.501 20.7236 282.435 20.7396C282.369 20.7557 282.3 20.7584 282.233 20.7475Z" fill="#1E1E1E"/>
<path d="M283.232 19.0755C283.145 19.0747 283.059 19.0533 282.982 19.0132C279.07 16.6868 276.448 18.9405 276.417 19.0132C276.316 19.0875 276.191 19.1212 276.067 19.1078C275.942 19.0943 275.827 19.0346 275.745 18.9404C275.662 18.8463 275.618 18.7246 275.621 18.5996C275.624 18.4746 275.675 18.3553 275.762 18.2654C275.762 18.2654 278.966 15.5237 283.492 18.2654C283.548 18.2985 283.596 18.3423 283.635 18.3943C283.674 18.4463 283.701 18.5054 283.717 18.5682C283.732 18.631 283.735 18.6963 283.725 18.7602C283.715 18.8241 283.693 18.8854 283.659 18.9405C283.603 18.9952 283.536 19.0361 283.462 19.0596C283.388 19.083 283.309 19.0885 283.232 19.0755Z" fill="#1E1E1E"/>
<path d="M284.148 17.1538C284.056 17.1556 283.965 17.1304 283.888 17.0811C278.935 14.1421 275.647 16.915 275.512 17.0811C275.463 17.1241 275.406 17.1569 275.344 17.1775C275.283 17.1982 275.218 17.2063 275.153 17.2015C275.088 17.1967 275.024 17.1789 274.966 17.1494C274.908 17.1198 274.857 17.0789 274.815 17.0292C274.769 16.9838 274.732 16.9296 274.707 16.8699C274.682 16.8102 274.669 16.7461 274.669 16.6813C274.669 16.6165 274.682 16.5524 274.707 16.4927C274.732 16.433 274.769 16.3788 274.815 16.3334C274.815 16.3334 278.769 12.9685 284.356 16.3334C284.469 16.4024 284.55 16.5125 284.583 16.6404C284.616 16.7683 284.598 16.904 284.533 17.0188C284.482 17.0671 284.421 17.1041 284.355 17.1274C284.288 17.1506 284.218 17.1597 284.148 17.1538Z" fill="#1E1E1E"/>
<path d="M280.745 21.5783C280.745 21.8248 280.672 22.0658 280.535 22.2707C280.398 22.4757 280.203 22.6354 279.974 22.7297C279.746 22.824 279.495 22.8487 279.253 22.8006C279.011 22.7526 278.788 22.6339 278.614 22.4596C278.439 22.2853 278.32 22.0632 278.272 21.8215C278.224 21.5797 278.249 21.3291 278.343 21.1014C278.438 20.8737 278.598 20.679 278.803 20.5421C279.008 20.4052 279.25 20.3321 279.497 20.3321C279.661 20.3307 279.824 20.362 279.976 20.4241C280.128 20.4863 280.266 20.578 280.383 20.694C280.499 20.81 280.591 20.9479 280.653 21.0998C280.715 21.2516 280.746 21.4143 280.745 21.5783Z" fill="#1E1E1E"/>
<path d="M187.304 279.458V247.66H194.93C196.777 247.613 198.619 247.869 200.382 248.418C201.783 248.866 202.98 249.793 203.763 251.036C204.615 252.566 205.019 254.305 204.929 256.053C204.939 257.216 204.82 258.376 204.575 259.513C204.366 260.462 203.954 261.355 203.368 262.131C202.752 262.885 201.943 263.459 201.027 263.793L205.47 279.458H199.654L195.804 264.915H193.13V279.458H187.304ZM193.13 261.237H194.93C195.854 261.281 196.775 261.114 197.625 260.749C198.291 260.434 198.807 259.871 199.061 259.18C199.38 258.295 199.528 257.357 199.498 256.417C199.59 255.156 199.28 253.898 198.613 252.823C198.02 252.023 196.897 251.618 195.253 251.618H193.172L193.13 261.237Z" fill="#1F9686"/>
<path d="M209.288 279.458V247.659H222.658V251.742H215.146V260.883H221.076V264.935H215.146V275.51H222.772V279.51L209.288 279.458Z" fill="#1F9686"/>
<path d="M226.123 279.458V247.659H239.222V251.617H231.939V260.967H237.88V265.018H231.939V279.458H226.123Z" fill="#1F9686"/>
<path d="M242.249 279.458V247.659H255.619V251.742H248.065V260.883H254.006V264.935H248.065V275.51H255.723V279.51L242.249 279.458Z" fill="#1F9686"/>
<path d="M259.084 279.458V247.66H266.71C268.554 247.613 270.392 247.869 272.152 248.418C273.557 248.864 274.758 249.791 275.544 251.036C276.391 252.568 276.792 254.306 276.699 256.053C276.714 257.216 276.595 258.377 276.345 259.513C276.139 260.461 275.731 261.354 275.148 262.131C274.532 262.885 273.723 263.459 272.807 263.793L277.25 279.458H271.424L267.574 264.915H264.9V279.458H259.084ZM264.9 261.237H266.71C267.634 261.28 268.555 261.113 269.405 260.749C270.067 260.428 270.58 259.867 270.841 259.18C271.151 258.293 271.296 257.356 271.268 256.417C271.36 255.156 271.05 253.898 270.383 252.823C269.801 252.023 268.677 251.618 267.023 251.618H264.942L264.9 261.237Z" fill="#1F9686"/>
<path d="M163.062 320.346L169.429 288.548H175.672L182.05 320.346H176.65L175.391 313.012H169.845L168.545 320.346H163.062ZM170.407 309.314H174.725L172.561 295.965L170.407 309.314Z" fill="#1F9686"/>
<path d="M194.598 320.346V288.548H207.697V292.547H200.414V301.814H206.344V305.865H200.414V320.346H194.598Z" fill="#1F9686"/>
<path d="M210.725 320.346V288.547H218.351C220.198 288.501 222.039 288.758 223.803 289.306C225.204 289.753 226.401 290.68 227.184 291.923C228.032 293.455 228.432 295.194 228.339 296.941C228.352 298.103 228.237 299.263 227.996 300.4C227.787 301.349 227.375 302.242 226.789 303.018C226.173 303.772 225.364 304.346 224.448 304.68L228.891 320.346H223.075L219.225 305.802H216.551V320.346H210.725ZM216.551 302.135H218.351C219.276 302.176 220.197 302.005 221.046 301.636C221.71 301.319 222.225 300.757 222.482 300.068C222.801 299.183 222.949 298.245 222.919 297.305C223.005 296.044 222.695 294.788 222.034 293.71C221.441 292.91 220.317 292.505 218.674 292.505H216.593L216.551 302.135Z" fill="#1F9686"/>
<path d="M232.833 320.346V288.548H238.576V320.346H232.833Z" fill="#1F9686"/>
<path d="M243.529 320.346V288.548H256.899V292.63H249.345V301.772H255.286V305.824H249.345V316.347H256.972V320.346H243.529Z" fill="#1F9686"/>
<path d="M260.354 320.346V288.548H264.411L272.152 306.675V288.548H276.959V320.346H273.099L265.316 301.346V320.346H260.354Z" fill="#1F9686"/>
<path d="M281.786 320.346V288.548H289.298C291.379 288.444 293.457 288.799 295.385 289.587C296.795 290.244 297.908 291.404 298.506 292.838C299.177 294.619 299.492 296.515 299.432 298.417V310.041C299.489 312.001 299.175 313.953 298.506 315.796C297.927 317.283 296.814 318.502 295.385 319.214C293.54 320.039 291.526 320.42 289.506 320.326L281.786 320.346ZM287.613 316.305H289.381C290.39 316.393 291.4 316.144 292.253 315.599C292.855 315.066 293.228 314.322 293.293 313.521C293.439 312.419 293.505 311.309 293.491 310.197V298.043C293.516 296.997 293.422 295.951 293.21 294.926C293.157 294.577 293.035 294.242 292.851 293.941C292.667 293.639 292.425 293.378 292.139 293.171C291.271 292.742 290.305 292.552 289.34 292.62H287.654L287.613 316.305Z" fill="#1F9686"/>
<path d="M92.9678 71.373H103.336" stroke="#263238" stroke-linecap="round" stroke-linejoin="round"/>
<path d="M173.347 71.373H183.715" stroke="#263238" stroke-linecap="round" stroke-linejoin="round"/>
<path d="M103.336 44.1943L109.169 48.7225" stroke="#263238" stroke-linecap="round" stroke-linejoin="round"/>
<path d="M172.048 44.1943L166.215 48.7225" stroke="#263238" stroke-linecap="round" stroke-linejoin="round"/>
<path d="M126.67 33.1943L127.318 42.8988" stroke="#263238" stroke-linecap="round" stroke-linejoin="round"/>
<path d="M149.364 34.4824L148.065 42.8994" stroke="#263238" stroke-linecap="round" stroke-linejoin="round"/>
<path d="M164.072 59.2539H108.103V107.474H164.072V59.2539Z" fill="white" stroke="#263238" stroke-linecap="round" stroke-linejoin="round"/>
<path d="M128.884 59.2539H118.329V107.474H128.884V59.2539Z" fill="#1F9686" stroke="#263238" stroke-linecap="round" stroke-linejoin="round"/>
<path d="M164.072 59.2539H139.538V107.474H164.072V59.2539Z" fill="white" stroke="#263238" stroke-linecap="round" stroke-linejoin="round"/>
<path d="M132.14 55.3208L123.932 51.7693C123.731 51.7521 123.528 51.7521 123.327 51.7693L123.194 51.6982H114.933L121.371 54.717C121.403 55.1686 121.472 55.6169 121.575 56.0577C121.791 56.7313 122.171 57.3407 122.682 57.8306C123.193 58.3205 123.818 58.6754 124.501 58.8634L124.554 59.1208H125.444L139.734 59.3162C139.734 59.3162 136.034 57.283 132.14 55.3208Z" fill="#1F9686" stroke="#263238" stroke-linecap="round" stroke-linejoin="round"/>
<path d="M131.481 59.2533C131.481 59.2533 122.589 54.4677 117.769 52.3635C112.949 50.2592 112.78 53.5088 113.323 55.9949C113.865 58.4809 117.156 59.058 117.156 59.058L131.481 59.2533Z" fill="#1F9686" stroke="#263238" stroke-linecap="round" stroke-linejoin="round"/>
<path d="M133.598 55.7647H130.459C130.011 55.7635 129.568 55.8506 129.154 56.0211C128.74 56.1916 128.364 56.442 128.048 56.758C127.731 57.074 127.48 57.4494 127.31 57.8625C127.139 58.2756 127.052 58.7183 127.053 59.1652H137.003C137.003 58.2633 136.645 57.3984 136.006 56.7607C135.367 56.1229 134.501 55.7647 133.598 55.7647Z" fill="#1F9686" stroke="#263238" stroke-linecap="round" stroke-linejoin="round"/>
<path d="M153.215 51.733H145.958L145.016 55.2845C141.121 57.2467 137.457 59.2178 137.457 59.2178L151.747 59.0224H152.637L152.681 58.765C153.365 58.5783 153.992 58.2239 154.505 57.734C155.017 57.244 155.399 56.634 155.615 55.9593C156.051 53.9349 155.998 51.3867 153.215 51.733Z" fill="#1F9686" stroke="#263238" stroke-linecap="round" stroke-linejoin="round"/>
<path d="M128.885 59.2533C128.885 59.2533 137.777 54.4677 142.606 52.3635C147.434 50.2592 147.586 53.5088 147.008 55.9949C146.43 58.4809 143.175 59.058 143.175 59.058L128.885 59.2533Z" fill="#1F9686" stroke="#263238" stroke-linecap="round" stroke-linejoin="round"/>
<path d="M109.926 110.875C109.926 110.875 105.249 107.767 106.271 106.782C107.294 105.796 112.318 107.962 113.465 109.445C114.612 110.928 114.034 111.922 113.083 112.011C112.131 112.1 109.926 110.875 109.926 110.875Z" fill="white" stroke="#263238" stroke-linecap="round" stroke-linejoin="round"/>
<path d="M113.883 107.252C113.883 107.252 106.636 103.496 108.379 106.968C110.122 110.439 114.461 113.627 116.204 114.497C117.947 115.367 127.516 115.074 127.516 115.074C127.516 115.074 125.737 111.886 124.03 111.016C122.322 110.146 113.883 107.252 113.883 107.252Z" fill="white" stroke="#263238" stroke-linecap="round" stroke-linejoin="round"/>
<path d="M120.837 107.253C120.837 107.253 111.268 102.05 110.975 104.074C110.681 106.098 118.516 112.757 121.121 113.912C123.166 114.667 125.326 115.06 127.506 115.075L120.837 107.253Z" fill="white" stroke="#263238" stroke-linecap="round" stroke-linejoin="round"/>
<path d="M158.523 116.202C158.523 116.202 155.046 108.096 152.432 106.942C149.817 105.788 126.341 108.096 126.341 108.096C126.341 108.096 115.03 98.8355 115.901 103.461C116.773 108.087 124.02 113.601 126.048 115.004C128.075 116.406 143.157 115.891 143.157 115.891L147.799 120.233L158.523 116.202Z" fill="white" stroke="#263238" stroke-linecap="round" stroke-linejoin="round"/>
<path d="M301.265 129.218C300.723 130.268 300.577 131.478 300.856 132.627C301.312 133.761 302.01 134.783 302.902 135.619L303.586 139.845L312.87 140.254L309.046 126.048L301.265 129.218Z" fill="white" stroke="#263238" stroke-linecap="round" stroke-linejoin="round"/>
<path d="M294.961 102.883C294.961 102.883 298.829 128.01 299.407 129.519C299.985 131.028 304.44 132.804 305.997 132.032C307.553 131.259 304.832 127.592 304.832 127.592L305.605 103.433C305.605 103.433 299.025 100.93 294.961 102.883Z" fill="#263238" stroke="#263238" stroke-linecap="round" stroke-linejoin="round"/>
<path d="M305.801 110.786C305.801 110.786 300.376 110.404 300.181 111.372C299.985 112.34 299.994 115.616 300.963 116.007C301.932 116.398 308.513 116.975 309.669 116.584C310.056 116.388 310.399 116.116 310.679 115.784C310.958 115.452 311.167 115.068 311.294 114.653C311.421 114.239 311.463 113.803 311.418 113.372C311.372 112.941 311.24 112.523 311.029 112.145C309.864 110.404 305.801 110.786 305.801 110.786Z" fill="white" stroke="#263238" stroke-linecap="round" stroke-linejoin="round"/>
<path d="M305.8 116.974C305.8 116.974 300.571 116.974 300.767 118.128C300.963 119.282 300.376 121.804 302.546 122.195C305.12 122.514 307.727 122.448 310.282 121.999C310.717 121.919 311.119 121.714 311.44 121.41C311.76 121.105 311.985 120.715 312.088 120.285C312.191 119.856 312.166 119.406 312.018 118.99C311.869 118.574 311.603 118.21 311.251 117.942C309.668 116.583 305.8 116.974 305.8 116.974Z" fill="white" stroke="#263238" stroke-linecap="round" stroke-linejoin="round"/>
<path d="M297.396 118.457C297.396 118.457 296.73 113.591 295.156 113.724C293.982 113.822 291.181 114.71 291.439 116.85C291.881 119.404 292.709 121.877 293.893 124.183C294.098 124.575 294.412 124.899 294.797 125.116C295.183 125.333 295.623 125.433 296.065 125.405C296.507 125.377 296.931 125.221 297.285 124.957C297.64 124.693 297.91 124.332 298.063 123.917C298.908 122.044 297.396 118.457 297.396 118.457Z" fill="white" stroke="#263238" stroke-linecap="round" stroke-linejoin="round"/>
<path d="M306.094 122.186C306.094 122.186 301.363 122.186 301.541 123.304C301.719 124.423 301.185 126.856 303.115 127.211C305.446 127.516 307.811 127.453 310.122 127.025C310.527 126.926 310.897 126.717 311.19 126.421C311.482 126.124 311.686 125.752 311.779 125.346C311.871 124.94 311.848 124.517 311.713 124.123C311.577 123.73 311.334 123.381 311.012 123.118C309.598 121.822 306.094 122.186 306.094 122.186Z" fill="white" stroke="#263238" stroke-linecap="round" stroke-linejoin="round"/>
<path d="M306.316 126.43C306.316 126.43 302.359 126.43 302.51 127.318C302.661 128.206 302.217 130.274 303.826 130.585C305.775 130.847 307.754 130.796 309.686 130.434C310.024 130.349 310.331 130.173 310.573 129.924C310.816 129.675 310.984 129.364 311.06 129.025C311.135 128.686 311.115 128.333 311.001 128.005C310.888 127.677 310.685 127.386 310.416 127.167C309.251 126.119 306.316 126.43 306.316 126.43Z" fill="white" stroke="#263238" stroke-linecap="round" stroke-linejoin="round"/>
<path d="M293.884 77.4365C291.376 77.4456 288.922 78.1659 286.807 79.5136C284.693 80.8613 283.006 82.7809 281.942 85.0489C280.878 87.317 280.481 89.8402 280.797 92.3247C281.114 94.8092 282.13 97.1529 283.729 99.0828C286.157 102.004 290.132 104.099 293.92 103.86C305.534 103.149 335.981 119.433 335.981 119.433V61.8633C335.981 61.8633 305.96 77.6763 293.884 77.4365Z" fill="white" stroke="#263238" stroke-linecap="round" stroke-linejoin="round"/>
<path d="M291.519 91.1192C291.519 88.147 292.322 85.2298 293.843 82.675C295.364 80.1202 297.547 78.0224 300.163 76.6025C298.11 77.1287 296.003 77.4088 293.884 77.4371C291.376 77.4462 288.922 78.1665 286.807 79.5142C284.693 80.8619 283.006 82.7815 281.942 85.0495C280.878 87.3176 280.481 89.8408 280.797 92.3253C281.114 94.8098 282.13 97.1535 283.729 99.0834C286.157 102.005 290.132 104.1 293.92 103.86C295.266 103.808 296.613 103.9 297.939 104.135C295.945 102.599 294.33 100.627 293.217 98.3708C292.104 96.1147 291.523 93.6341 291.519 91.1192Z" fill="#1F9686" stroke="#263238" stroke-linecap="round" stroke-linejoin="round"/>
<path d="M363.944 97.4428C367.709 81.9964 358.221 66.4268 342.75 62.667C327.28 58.9073 311.686 68.3813 307.921 83.8277C304.155 99.2741 313.644 114.844 329.114 118.603C344.584 122.363 360.178 112.889 363.944 97.4428Z" fill="white" stroke="#263238" stroke-linecap="round" stroke-linejoin="round"/>
<path d="M360.515 90.6491C360.517 95.5031 359.077 100.249 356.377 104.286C353.677 108.322 349.839 111.469 345.348 113.328C340.857 115.187 335.915 115.674 331.147 114.728C326.378 113.782 321.998 111.446 318.56 108.014C315.121 104.582 312.779 100.21 311.83 95.4489C310.881 90.6882 311.367 85.7534 313.228 81.2687C315.088 76.7839 318.238 72.9506 322.28 70.2537C326.322 67.5567 331.075 66.1172 335.936 66.1172C342.453 66.1195 348.702 68.7046 353.31 73.3045C357.919 77.9043 360.51 84.1427 360.515 90.6491Z" fill="#A6A6A6" stroke="#263238" stroke-linecap="round" stroke-linejoin="round"/>
<path d="M335.937 84.6556V96.6685L317.031 106.337C314.151 102.865 312.284 98.668 311.633 94.2065C310.982 89.745 311.573 85.1907 313.341 81.042L335.937 84.6556Z" fill="white" stroke="#263238" stroke-linecap="round" stroke-linejoin="round"/>
<path d="M341.939 90.6484C341.939 91.8341 341.587 92.9932 340.927 93.9789C340.267 94.9647 339.329 95.7328 338.232 96.1862C337.135 96.6395 335.927 96.7577 334.763 96.5257C333.598 96.2938 332.529 95.7221 331.69 94.883C330.85 94.044 330.279 92.9753 330.049 91.8122C329.818 90.649 329.938 89.4437 330.394 88.3488C330.85 87.2538 331.62 86.3185 332.609 85.661C333.597 85.0035 334.758 84.6535 335.946 84.6553C337.536 84.6576 339.061 85.2901 340.185 86.4138C341.308 87.5374 341.939 89.0605 341.939 90.6484Z" fill="white" stroke="#263238" stroke-linecap="round" stroke-linejoin="round"/>
<path d="M301.639 140.227L300.679 136.205L313.146 134.669L312.87 140.254L301.639 140.227Z" fill="white" stroke="#263238" stroke-linecap="round" stroke-linejoin="round"/>
<path d="M147.052 121.84L144.18 117.241L157.412 110.537L158.523 116.175L147.052 121.84Z" fill="white" stroke="#263238" stroke-linecap="round" stroke-linejoin="round"/>
<path d="M227.485 115.189C227.485 115.189 206.214 112.828 204.364 113.769C202.515 114.71 175.535 146.567 175.535 146.567L158.959 113.538L145.007 119.664C145.007 119.664 162.489 179.152 165.326 179.826C168.163 180.501 195.098 162.611 195.098 162.611L193.444 186.201C193.444 186.201 190.039 213.352 212.021 217.125C234.003 220.899 255.354 196.581 258.19 190.916C260.302 186.401 262.117 181.754 263.624 177.003L273.788 147.037C273.788 147.037 302.404 170.362 308.771 173.221C315.138 176.08 321.051 178.654 321.763 177.234C322.474 175.813 315.387 138.07 315.387 138.07L300.27 138.78L300.981 144.676C300.981 144.676 281.364 118.927 279.71 116.361C278.056 113.795 273.094 114.239 267.19 112.588C261.285 110.937 227.485 115.189 227.485 115.189Z" fill="#211F96" stroke="#263238" stroke-linecap="round" stroke-linejoin="round"/>
<path d="M195.106 162.61L210.944 150.811" stroke="#263238" stroke-linecap="round" stroke-linejoin="round"/>
<path d="M205.271 155.294L213.301 153.874" stroke="#263238" stroke-linecap="round" stroke-linejoin="round"/>
<path d="M273.796 147.037L279.229 127.921" stroke="#263238" stroke-linecap="round" stroke-linejoin="round"/>
<path d="M275.922 140.902L281.826 132.645" stroke="#263238" stroke-linecap="round" stroke-linejoin="round"/>
<path d="M301.675 158.411L301.914 163.081" stroke="#263238" stroke-linecap="round" stroke-linejoin="round"/>
<path d="M300.972 144.676L301.398 153.084" stroke="#263238" stroke-linecap="round" stroke-linejoin="round"/>
<path d="M175.499 146.566L180.461 156.946" stroke="#263238" stroke-linecap="round" stroke-linejoin="round"/>
<path d="M235.515 112.588L225.119 114.48C225.119 114.48 221.34 117.543 219.215 124.619C217.924 128.942 216.975 133.359 216.378 137.831L225.359 138.31L218.245 145.413C218.245 145.413 220.38 148.476 224.861 155.082C228.403 160.062 232.264 164.807 236.422 169.288L223.261 186.202C223.261 186.202 239.329 182.65 249.253 171.809C259.177 160.969 265.055 144.676 265.055 144.676L257.257 138.541L265.527 136.889C265.527 136.889 267.181 123.447 258.413 114.693C249.645 105.938 235.515 112.588 235.515 112.588Z" fill="#211F96" stroke="#263238" stroke-linecap="round" stroke-linejoin="round"/>
<path d="M258.91 118.251C258.91 118.251 256.153 123.703 255.602 133.825C255.175 141.727 251.023 151.795 247.359 158.916C244.451 164.581 241.846 168.381 241.659 167.795C241.659 167.795 240.129 165.344 237.684 158.206C237.088 156.501 236.448 154.512 235.754 152.213C232.197 140.413 229.138 121.306 230.552 117.532C231.216 115.672 232.006 113.86 232.917 112.107C244.264 127.45 258.91 118.251 258.91 118.251Z" fill="white" stroke="#263238" stroke-linecap="round" stroke-linejoin="round"/>
<path d="M244.495 150.58L247.359 158.917C244.451 164.582 241.845 168.382 241.659 167.796C241.659 167.796 240.129 165.345 237.684 158.207L241.659 151.041L237.71 143.663L242.37 139.002L248.746 145.377L244.495 150.58Z" fill="#263238" stroke="#263238" stroke-linecap="round" stroke-linejoin="round"/>
<path d="M234.571 147.037L242.37 139.011L251.867 147.96" stroke="#263238" stroke-linecap="round" stroke-linejoin="round"/>
<path d="M232.918 112.117C233.184 116.87 234.139 121.56 235.755 126.039C237.544 130.562 239.759 134.906 242.371 139.011L253.495 123.207C253.495 123.207 241.428 124.388 232.918 112.117Z" stroke="#263238" stroke-linecap="round" stroke-linejoin="round"/>
<path d="M266.718 87.1147C266.718 87.1147 270.097 86.5908 270.097 91.1989C270.097 95.8069 268.141 101.48 268.141 101.48L266.718 87.1147Z" fill="white" stroke="#263238" stroke-linecap="round" stroke-linejoin="round"/>
<path d="M265.526 70.1208C265.526 70.1208 267.891 91.5895 268.122 97.9645C268.354 104.339 267.651 109.995 265.526 112.827C263.4 115.66 254.855 126.98 250.408 127.451C245.962 127.921 240.956 125.568 239.071 123.899C237.185 122.23 228.195 108.086 228.195 108.086C228.195 108.086 221.348 107.616 219.694 98.6481C218.04 89.6806 227.252 91.8115 227.252 91.8115C227.252 91.8115 222.29 84.0249 221.819 76.478C221.348 68.9311 219.925 66.0899 240.253 65.6193C260.581 65.1487 265.526 70.1208 265.526 70.1208Z" fill="white" stroke="#263238" stroke-linecap="round" stroke-linejoin="round"/>
<path d="M254.891 85.2236L260.565 104.801L251.823 102.209" stroke="#263238" stroke-linecap="round" stroke-linejoin="round"/>
<path d="M243.082 99.8467L236.226 101.267" stroke="#263238" stroke-linecap="round" stroke-linejoin="round"/>
<path d="M239.773 101.028C240.431 103.032 241.647 104.807 243.278 106.145C244.91 107.483 246.89 108.329 248.986 108.584C256.545 109.756 260.324 108.344 260.324 108.344" stroke="#263238" stroke-linecap="round" stroke-linejoin="round"/>
<path d="M241.658 104.801C241.658 104.801 241.427 116.601 245.678 117.071C249.928 117.542 248.986 108.583 248.986 108.583C246.302 107.857 243.804 106.567 241.658 104.801Z" fill="#263238" stroke="#263238" stroke-linecap="round" stroke-linejoin="round"/>
<path d="M242.53 112.961C243.108 115.11 244.078 116.894 245.678 117.072C246.081 117.129 246.492 117.076 246.867 116.92C247.243 116.764 247.569 116.509 247.812 116.184C246.985 114.737 244.131 113.538 242.53 112.961Z" fill="white" stroke="#263238" stroke-linecap="round" stroke-linejoin="round"/>
<path d="M244.602 90.6488C244.602 91.954 244.024 93.0106 243.304 93.0106C242.584 93.0106 242.006 91.954 242.006 90.6488C242.006 89.3437 242.584 88.2871 243.304 88.2871C244.024 88.2871 244.602 89.3437 244.602 90.6488Z" fill="#263238"/>
<path d="M260.448 88.5268C260.448 89.8319 259.861 90.8885 259.141 90.8885C258.421 90.8885 257.843 89.8319 257.843 88.5268C257.843 87.2216 258.43 86.165 259.141 86.165C259.852 86.165 260.448 87.2216 260.448 88.5268Z" fill="#263238"/>
<path d="M239.062 86.6345C240.166 85.3817 241.566 84.4235 243.134 83.8468C244.702 83.2701 246.39 83.093 248.044 83.3316" stroke="#263238" stroke-linecap="round" stroke-linejoin="round"/>
<path d="M255.603 82.391C255.603 82.391 258.67 76.7264 263.606 79.5587" stroke="#263238" stroke-linecap="round" stroke-linejoin="round"/>
<path d="M240.476 70.5917C240.476 70.5917 233.158 69.4108 234.812 71.5417C236.466 73.6726 240.245 76.2563 238.369 77.9077C236.492 79.5592 231.753 82.3471 231.993 83.8032C232.233 85.2593 232.695 91.1192 231.993 92.5398C231.29 93.9604 229.627 94.1913 227.973 93.9516C226.319 93.7118 223.954 89.4678 223.011 88.2869C222.069 87.1061 213.559 78.618 215.213 71.7725C216.867 64.9271 234.589 59.5022 234.589 59.5022C234.589 59.5022 245.909 46.7701 253.495 46.5304C261.08 46.2906 258.217 53.3758 257.941 54.0773C257.665 54.7787 268.808 53.3758 270.933 60.2125C273.058 67.0491 272.356 68.9402 262.663 71.5417C252.97 74.1431 240.476 70.5917 240.476 70.5917Z" fill="#263238" stroke="#263238" stroke-linecap="round" stroke-linejoin="round"/>
<path d="M389.532 61.1719L370.271 66.144L374.254 68.1328L363.299 71.4534L385.539 68.4702L379.901 65.8154L389.532 61.1719Z" fill="#263238"/>
<path d="M393.481 107.99L373.997 103.968L376.701 107.501L365.398 105.655L386.678 112.775L382.783 107.91L393.481 107.99Z" fill="#263238"/>
<path d="M372.53 140.049L356.123 128.809L357.244 133.115L347.542 127.042L364.402 141.843L362.704 135.85L372.53 140.049Z" fill="#263238"/>
<defs>
<filter id="filter0_d_517_7376" x="64.0315" y="61.8906" width="13.6842" height="14.6187" filterUnits="userSpaceOnUse" color-interpolation-filters="sRGB">
<feFlood flood-opacity="0" result="BackgroundImageFix"/>
<feColorMatrix in="SourceAlpha" type="matrix" values="0 0 0 0 0 0 0 0 0 0 0 0 0 0 0 0 0 0 127 0" result="hardAlpha"/>
<feOffset dy="0.829876"/>
<feGaussianBlur stdDeviation="0.414938"/>
<feComposite in2="hardAlpha" operator="out"/>
<feColorMatrix type="matrix" values="0 0 0 0 0 0 0 0 0 0 0 0 0 0 0 0 0 0 0.25 0"/>
<feBlend mode="normal" in2="BackgroundImageFix" result="effect1_dropShadow_517_7376"/>
<feBlend mode="normal" in="SourceGraphic" in2="effect1_dropShadow_517_7376" result="shape"/>
</filter>
<linearGradient id="paint0_linear_517_7376" x1="55.8455" y1="57.4231" x2="91.2819" y2="82.7745" gradientUnits="userSpaceOnUse">
<stop stop-color="#FFBB00"/>
<stop offset="1" stop-color="#FF9900"/>
</linearGradient>
<linearGradient id="paint1_linear_517_7376" x1="349.003" y1="191.839" x2="359.503" y2="191.71" gradientUnits="userSpaceOnUse">
<stop stop-color="#36B23B"/>
<stop offset="0.865" stop-color="#4C0098"/>
<stop offset="1" stop-color="#190032"/>
</linearGradient>
<linearGradient id="paint2_linear_517_7376" x1="336.143" y1="271.048" x2="458.267" y2="268.264" gradientUnits="userSpaceOnUse">
<stop stop-color="#36B23B"/>
<stop offset="0.865" stop-color="#4C0098"/>
<stop offset="1" stop-color="#190032"/>
</linearGradient>
<linearGradient id="paint3_linear_517_7376" x1="415.288" y1="248.193" x2="426.864" y2="248.027" gradientUnits="userSpaceOnUse">
<stop stop-color="#36B23B"/>
<stop offset="0.865" stop-color="#4C0098"/>
<stop offset="1" stop-color="#190032"/>
</linearGradient>
<linearGradient id="paint4_linear_517_7376" x1="101.952" y1="191.839" x2="112.449" y2="191.71" gradientUnits="userSpaceOnUse">
<stop stop-color="#36B23B"/>
<stop offset="0.865" stop-color="#4C0098"/>
<stop offset="1" stop-color="#190032"/>
</linearGradient>
<linearGradient id="paint5_linear_517_7376" x1="37.4759" y1="271.048" x2="159.587" y2="268.265" gradientUnits="userSpaceOnUse">
<stop stop-color="#36B23B"/>
<stop offset="0.865" stop-color="#4C0098"/>
<stop offset="1" stop-color="#190032"/>
</linearGradient>
<linearGradient id="paint6_linear_517_7376" x1="34.9268" y1="248.193" x2="46.5055" y2="248.027" gradientUnits="userSpaceOnUse">
<stop stop-color="#36B23B"/>
<stop offset="0.865" stop-color="#4C0098"/>
<stop offset="1" stop-color="#190032"/>
</linearGradient>
</defs>
</svg>
